#!OML:ASF H:\Dans Jumps\Project 1\Capture day 1\Session 1\subject.ASF
:FULLY-SPECIFIED
:DEGREES
403
root 0.0696069 17.7774 10.0966 10.7734 0.732543 -1.4706
lowerback -1.24135 0.959524 0.164652
upperback 1.44046 1.24769 1.45042
thorax 2.14345 0.613364 1.43337
lowerneck -11.8108 -1.26203 -1.50719
upperneck 27.3105 -1.64067 0.779207
head 10.7365 -0.801003 0.334162
rclavicle -5.06901e-015 -1.03368e-014
rhumerus -23.115 -13.0019 -82.8852
rradius 23.0424
rwrist 43.3615
rhand -18.558 -26.2246
rfingers 7.12502
rthumb 7.73176 -56.0633
lclavicle -5.06901e-015 -1.03368e-014
lhumerus -30.6372 -1.01532 90.3373
lradius 16.8701
lwrist 8.7747
lhand -25.9029 -8.75558
lfingers 7.12502
lthumb 0.639535 21.2232
rfemur -16.2536 -2.77622 20.2861
rtibia 19.3253
rfoot -12.6857 1.044
rtoes 17.2023
lfemur -15.4293 8.14103 -18.0376
ltibia 16.45
lfoot -10.7242 2.79014
ltoes -9.96705
404
root 0.0694269 17.7755 10.1134 10.6853 0.576982 -1.46755
lowerback -1.36242 0.964531 0.152126
upperback 1.39926 1.2542 1.44019
thorax 2.16899 0.616518 1.43196
lowerneck -11.7778 -1.22977 -1.50324
upperneck 27.2041 -1.59344 0.768862
head 10.6894 -0.780898 0.335873
rclavicle -4.17448e-015 1.19271e-015
rhumerus -23.1091 -12.7519 -82.9248
rradius 23.258
rwrist 43.088
rhand -18.6005 -26.1769
rfingers 7.12502
rthumb 7.6908 -56.017
lclavicle -4.17448e-015 1.19271e-015
lhumerus -30.5546 -1.00483 90.3444
lradius 16.9161
lwrist 8.7372
lhand -25.8798 -8.74506
lfingers 7.12502
lthumb 0.661831 21.2337
rfemur -16.1148 -2.74147 20.2704
rtibia 19.3349
rfoot -12.7513 1.14572
rtoes 17.2054
lfemur -15.2196 8.18015 -18.0251
ltibia 16.4141
lfoot -10.8761 2.9083
ltoes -10.473
405
root 0.0694747 17.7735 10.1308 10.5929 0.434602 -1.47341
lowerback -1.48351 0.965264 0.154848
upperback 1.35433 1.25467 1.43217
thorax 2.19114 0.616899 1.42404
lowerneck -11.7346 -1.19688 -1.50936
upperneck 27.0965 -1.54666 0.771166
head 10.6403 -0.760526 0.343812
rclavicle -9.74045e-015 0
rhumerus -23.1146 -12.5467 -82.9561
rradius 23.4676
rwrist 42.8389
rhand -18.6405 -26.1226
rfingers 7.12502
rthumb 7.65216 -55.9642
lclavicle -9.74045e-015 0
lhumerus -30.4893 -1.0236 90.3617
lradius 16.9561
lwrist 8.72211
lhand -25.8462 -8.72154
lfingers 7.12502
lthumb 0.694305 21.2571
rfemur -15.9588 -2.71724 20.2643
rtibia 19.3291
rfoot -12.8144 1.24783
rtoes 17.2024
lfemur -15.0095 8.20519 -18.0034
ltibia 16.3887
lfoot -11.0037 3.05254
ltoes -10.9247
406
root 0.0696366 17.7716 10.1486 10.4973 0.300074 -1.48759
lowerback -1.60632 0.961901 0.167964
upperback 1.30579 1.24936 1.42742
thorax 2.21082 0.614548 1.41345
lowerneck -11.7112 -1.15701 -1.49532
upperneck 27.0141 -1.49003 0.756845
head 10.604 -0.735464 0.343415
rclavicle -4.91992e-015 -5.1684e-015
rhumerus -23.1267 -12.3442 -82.9885
rradius 23.6709
rwrist 42.5731
rhand -18.6835 -26.0697
rfingers 7.12502
rthumb 7.61063 -55.9127
lclavicle -4.91992e-015 -5.1684e-015
lhumerus -30.4435 -1.05144 90.3828
lradius 16.9962
lwrist 8.72474
lhand -25.7877 -8.61663
lfingers 7.12502
lthumb 0.750811 21.3618
rfemur -15.7861 -2.69388 20.267
rtibia 19.3046
rfoot -12.8724 1.34552
rtoes 17.1829
lfemur -14.8006 8.22347 -17.9735
ltibia 16.375
lfoot -11.1091 3.2247
ltoes -11.3354
407
root 0.0699287 17.7697 10.1669 10.3961 0.171729 -1.51221
lowerback -1.72865 0.956311 0.193756
upperback 1.25802 1.24064 1.42538
thorax 2.23131 0.610663 1.39841
lowerneck -11.6861 -1.11856 -1.48452
upperneck 26.9307 -1.43691 0.750316
head 10.5672 -0.711396 0.345904
rclavicle 5.06901e-015 1.23246e-014
rhumerus -23.1426 -12.1561 -83.0221
rradius 23.8692
rwrist 42.2982
rhand -18.7194 -26.0135
rfingers 7.12502
rthumb 7.57596 -55.8578
lclavicle 5.06901e-015 1.23246e-014
lhumerus -30.406 -1.07462 90.4007
lradius 17.0272
lwrist 8.71761
lhand -25.7308 -8.50521
lfingers 7.12502
lthumb 0.805699 21.473
rfemur -15.5945 -2.66456 20.2801
rtibia 19.2606
rfoot -12.9274 1.43306
rtoes 17.1503
lfemur -14.5903 8.23872 -17.9327
ltibia 16.3726
lfoot -11.1922 3.42165
ltoes -11.7041
408
root 0.0703748 17.7679 10.1856 10.2898 0.0481843 -1.54341
lowerback -1.85175 0.948934 0.228844
upperback 1.21221 1.22915 1.42507
thorax 2.25447 0.605501 1.37985
lowerneck -11.6863 -1.07712 -1.45761
upperneck 26.8684 -1.37881 0.728276
head 10.543 -0.685139 0.340555
rclavicle 1.11319e-014 7.55382e-015
rhumerus -23.1621 -11.9716 -83.0592
rradius 24.0698
rwrist 41.9986
rhand -18.7461 -25.9618
rfingers 7.12502
rthumb 7.55018 -55.807
lclavicle 1.11319e-014 7.55382e-015
lhumerus -30.3706 -1.09178 90.4141
lradius 17.0508
lwrist 8.69999
lhand -25.6306 -8.33996
lfingers 7.12502
lthumb 0.90257 21.6379
rfemur -15.3869 -2.633 20.2998
rtibia 19.2025
rfoot -12.9806 1.51394
rtoes 17.1121
lfemur -14.3765 8.25944 -17.8858
ltibia 16.3767
lfoot -11.2521 3.63482
ltoes -12.0308
409
root 0.0709455 17.766 10.2048 10.1759 -0.0694957 -1.57885
lowerback -1.97547 0.94006 0.270639
upperback 1.16985 1.21527 1.42659
thorax 2.28164 0.599218 1.35934
lowerneck -11.7006 -1.0335 -1.43337
upperneck 26.8212 -1.31797 0.71012
head 10.5272 -0.65738 0.337317
rclavicle -7.95139e-016 3.97569e-016
rhumerus -23.1749 -11.812 -83.0936
rradius 24.2512
rwrist 41.6928
rhand -18.7562 -25.9041
rfingers 7.12502
rthumb 7.54049 -55.7497
lclavicle -7.95139e-016 3.97569e-016
lhumerus -30.3313 -1.11015 90.4271
lradius 17.0603
lwrist 8.66865
lhand -25.5455 -8.21872
lfingers 7.12502
lthumb 0.984717 21.7587
rfemur -15.1636 -2.60057 20.3235
rtibia 19.1366
rfoot -13.0338 1.58829
rtoes 17.0744
lfemur -14.155 8.28909 -17.8348
ltibia 16.3833
lfoot -11.2915 3.85183
ltoes -12.3109
410
root 0.0716531 17.7642 10.2243 10.0564 -0.18335 -1.60293
lowerback -2.10068 0.930758 0.303526
upperback 1.12882 1.20102 1.42557
thorax 2.31088 0.592617 1.34122
lowerneck -11.6953 -0.995537 -1.43041
upperneck 26.7627 -1.26596 0.712088
head 10.5038 -0.633464 0.343895
rclavicle -6.01324e-015 7.55382e-015
rhumerus -23.1816 -11.6934 -83.12
rradius 24.4058
rwrist 41.3921
rhand -18.7493 -25.835
rfingers 7.12502
rthumb 7.54715 -55.6803
lclavicle -6.01324e-015 7.55382e-015
lhumerus -30.2872 -1.12859 90.4387
lradius 17.0593
lwrist 8.62051
lhand -25.4578 -8.12549
lfingers 7.12502
lthumb 1.06943 21.8516
rfemur -14.9313 -2.5763 20.3342
rtibia 19.0703
rfoot -13.0865 1.66532
rtoes 17.0597
lfemur -13.9264 8.32897 -17.7978
ltibia 16.3888
lfoot -11.3086 4.06284
ltoes -12.5458
411
root 0.0723548 17.7622 10.244 9.93344 -0.290234 -1.61655
lowerback -2.22525 0.919329 0.325917
upperback 1.08685 1.18423 1.42391
thorax 2.33863 0.584596 1.32815
lowerneck -11.684 -0.957937 -1.44012
upperneck 26.7096 -1.21441 0.724234
head 10.4815 -0.609819 0.356222
rclavicle -7.20594e-015 -1.31198e-014
rhumerus -23.1862 -11.6037 -83.1386
rradius 24.5405
rwrist 41.0932
rhand -18.717 -25.7619
rfingers 7.12502
rthumb 7.57827 -55.6061
lclavicle -7.20594e-015 -1.31198e-014
lhumerus -30.2425 -1.1588 90.4559
lradius 17.0485
lwrist 8.56615
lhand -25.4165 -8.13105
lfingers 7.12502
lthumb 1.10928 21.8458
rfemur -14.697 -2.55961 20.3336
rtibia 19.0114
rfoot -13.1415 1.74285
rtoes 17.067
lfemur -13.6924 8.37126 -17.7721
ltibia 16.3892
lfoot -11.2968 4.26005
ltoes -12.6944
412
root 0.0728573 17.7601 10.2635 9.80742 -0.391797 -1.62411
lowerback -2.34757 0.906742 0.339192
upperback 1.04704 1.16612 1.42284
thorax 2.36716 0.575769 1.32068
lowerneck -11.6914 -0.918029 -1.45147
upperneck 26.6724 -1.15937 0.737734
head 10.4686 -0.584506 0.369654
rclavicle 3.37934e-015 5.56597e-015
rhumerus -23.1794 -11.5384 -83.1544
rradius 24.6534
rwrist 40.799
rhand -18.6568 -25.6947
rfingers 7.12502
rthumb 7.63647 -55.5368
lclavicle 3.37934e-015 5.56597e-015
lhumerus -30.1915 -1.19317 90.4734
lradius 17.0321
lwrist 8.48969
lhand -25.4103 -8.16957
lfingers 7.12502
lthumb 1.11532 21.8073
rfemur -14.4658 -2.54284 20.3268
rtibia 18.9649
rfoot -13.1977 1.8164
rtoes 17.083
lfemur -13.4543 8.40716 -17.7514
ltibia 16.3833
lfoot -11.2538 4.44394
ltoes -12.7437
413
root 0.0731915 17.758 10.2826 9.68342 -0.486148 -1.62117
lowerback -2.46897 0.891843 0.338562
upperback 1.00707 1.14539 1.42169
thorax 2.39477 0.565425 1.32074
lowerneck -11.7134 -0.874919 -1.4606
upperneck 26.6433 -1.09899 0.747161
head 10.4616 -0.556934 0.381859
rclavicle 1.6201e-014 1.66979e-014
rhumerus -23.1638 -11.4954 -83.1664
rradius 24.7435
rwrist 40.524
rhand -18.5796 -25.6387
rfingers 7.12502
rthumb 7.71092 -55.4781
lclavicle 1.6201e-014 1.66979e-014
lhumerus -30.1393 -1.23146 90.4932
lradius 17.0127
lwrist 8.40226
lhand -25.3996 -8.18665
lfingers 7.12502
lthumb 1.12558 21.7901
rfemur -14.244 -2.53083 20.3086
rtibia 18.9306
rfoot -13.2566 1.89185
rtoes 17.1237
lfemur -13.2208 8.43154 -17.7414
ltibia 16.3757
lfoot -11.1855 4.61134
ltoes -12.6996
414
root 0.073447 17.7557 10.3016 9.56152 -0.575058 -1.61429
lowerback -2.59211 0.875476 0.332057
upperback 0.969169 1.12286 1.42124
thorax 2.42538 0.554069 1.32473
lowerneck -11.7612 -0.830662 -1.46319
upperneck 26.6287 -1.03613 0.749147
head 10.4647 -0.528371 0.390529
rclavicle 2.57923e-014 2.32578e-014
rhumerus -23.1377 -11.4684 -83.1773
rradius 24.8128
rwrist 40.2732
rhand -18.4994 -25.582
rfingers 7.12502
rthumb 7.78837 -55.4186
lclavicle 2.57923e-014 2.32578e-014
lhumerus -30.085 -1.27688 90.5159
lradius 16.992
lwrist 8.31551
lhand -25.4057 -8.21778
lfingers 7.12502
lthumb 1.11974 21.759
rfemur -14.0301 -2.52715 20.2861
rtibia 18.9057
rfoot -13.3172 1.97594
rtoes 17.1771
lfemur -12.9944 8.44507 -17.7362
ltibia 16.3717
lfoot -11.0978 4.76372
ltoes -12.5801
415
root 0.0735904 17.7533 10.3204 9.44556 -0.658989 -1.61025
lowerback -2.72018 0.859134 0.32657
upperback 0.932634 1.10019 1.42318
thorax 2.46016 0.542632 1.33065
lowerneck -11.8194 -0.787021 -1.46823
upperneck 26.6127 -0.974086 0.753738
head 10.4695 -0.500077 0.400436
rclavicle 9.59136e-015 6.36111e-015
rhumerus -23.1032 -11.465 -83.1835
rradius 24.8577
rwrist 40.0726
rhand -18.4211 -25.5163
rfingers 7.12502
rthumb 7.86394 -55.3501
lclavicle 9.59136e-015 6.36111e-015
lhumerus -30.0273 -1.31918 90.5388
lradius 16.968
lwrist 8.2188
lhand -25.4276 -8.24834
lfingers 7.12502
lthumb 1.09854 21.7286
rfemur -13.8272 -2.5281 20.2663
rtibia 18.8868
rfoot -13.3791 2.06726
rtoes 17.2398
lfemur -12.7818 8.44586 -17.7285
ltibia 16.3762
lfoot -11.0057 4.90284
ltoes -12.3551
416
root 0.0737597 17.7509 10.3391 9.33773 -0.735389 -1.61071
lowerback -2.85486 0.84156 0.325576
upperback 0.89394 1.0756 1.42822
thorax 2.4965 0.530279 1.33717
lowerneck -11.878 -0.743867 -1.47106
upperneck 26.5895 -0.911781 0.753309
head 10.4717 -0.47201 0.408223
rclavicle 6.55989e-015 -3.57812e-015
rhumerus -23.0744 -11.4626 -83.1866
rradius 24.8922
rwrist 39.9087
rhand -18.3537 -25.4476
rfingers 7.12502
rthumb 7.92897 -55.2789
lclavicle 6.55989e-015 -3.57812e-015
lhumerus -29.9656 -1.35074 90.5592
lradius 16.9376
lwrist 8.11327
lhand -25.4268 -8.24772
lfingers 7.12502
lthumb 1.09938 21.7292
rfemur -13.6339 -2.54407 20.2513
rtibia 18.8681
rfoot -13.4385 2.1735
rtoes 17.3213
lfemur -12.5888 8.44157 -17.7185
ltibia 16.3962
lfoot -10.9184 5.02491
ltoes -12.055
